Coordinates
version=1
nRows=5
nColumns=40
inDegrees=yes

Units are S.I. units (second, meters, Newtons, ...)
Angles are in degrees.

endheader
time	pelvis_tilt	pelvis_list	pelvis_rotation	pelvis_tx	pelvis_ty	pelvis_tz	hip_flexion_r	hip_adduction_r	hip_rotation_r	knee_angle_r	knee_angle_r_beta	ankle_angle_r	subtalar_angle_r	mtp_angle_r	hip_flexion_l	hip_adduction_l	hip_rotation_l	knee_angle_l	knee_angle_l_beta	ankle_angle_l	subtalar_angle_l	mtp_angle_l	lumbar_extension	lumbar_bending	lumbar_rotation	arm_flex_r	arm_add_r	arm_rot_r	elbow_flex_r	pro_sup_r	wrist_flex_r	wrist_dev_r	arm_flex_l	arm_add_l	arm_rot_l	elbow_flex_l	pro_sup_l	wrist_flex_l	wrist_dev_l
     22.77928571	     -7.68789070	     -4.60455111	     -9.26595120	      0.92236411	      0.92501104	      0.45132694	     29.90201134	      0.22284811	     -5.37968877	     32.11349229	     32.11349229	      7.29492744	     -8.55019439	     -5.49487417	      9.90543129	     -4.13706588	     -8.95167816	     22.89420519	     22.89420519	     21.01491777	    -17.49853421	     10.71990234	    -12.14976707	     10.21612966	      2.05458299	    -12.42871270	     -9.15217195	    -21.36362185	     22.79264371	     47.11688875	      0.00000000	      0.00000000	     31.11610187	    -26.23492793	     -7.31109810	     77.94318113	     47.72819974	      0.00000000	      0.00000000
     22.79857143	     -7.75065335	     -4.45748070	    -10.13473397	      0.92278034	      0.92420891	      0.45514095	     29.34689051	      0.54387467	     -5.89140809	     27.33231934	     27.33231934	      7.55858079	     -3.32054808	     -3.61294559	      8.91492038	     -4.14011079	     -9.75793563	     22.01028073	     22.01028073	     20.94286315	    -17.48966520	      9.87071069	    -12.16351933	     10.11669691	      1.65346610	    -13.18326619	     -8.91390580	    -20.78980261	     25.55350842	     46.91607813	      0.00000000	      0.00000000	     31.51995447	    -27.07070797	     -7.98833303	     80.74501936	     47.85548738	      0.00000000	      0.00000000
     22.81785714	     -7.71271933	     -4.38278881	    -10.93804529	      0.92352966	      0.92304736	      0.45929332	     28.60778500	      1.07971851	     -5.90000837	     23.02760227	     23.02760227	      6.98928278	      0.46284682	     -2.29873744	      7.86939795	     -4.20345358	    -10.48953420	     21.31918851	     21.31918851	     21.29735235	    -17.39253060	      9.69065697	    -12.17927855	     10.08475631	      1.65765936	    -13.13629871	     -8.75708580	    -20.60114887	     25.95658115	     46.87897102	      0.00000000	      0.00000000	     32.74571599	    -27.35064215	     -8.16298151	     81.74895231	     47.89871313	      0.00000000	      0.00000000
     22.83714286	     -7.65919656	     -4.14121667	    -11.63597369	      0.92458139	      0.92123750	      0.46337969	     28.40524290	      1.15285012	     -6.45829995	     20.55816372	     20.55816372	      7.64376856	      4.92715910	      1.73886479	      6.86192338	     -4.06678319	    -11.21298427	     20.67226268	     20.67226268	     21.37361325	    -17.38167300	      8.52796739	    -12.18159706	      9.87849164	      1.43281700	    -13.47719348	     -8.67158223	    -19.74634517	     28.19308356	     46.69023637	      0.00000000	      0.00000000	     33.53068324	    -27.71802845	     -8.71131518	     83.68695829	     48.00331822	      0.00000000	      0.00000000
     22.85642857	     -7.59528773	     -4.02983276	    -12.23206374	      0.92587891	      0.91934638	      0.46778993	     28.13910539	      1.51818547	     -6.28613608	     18.65771296	     18.65771296	      7.02335204	      6.96063764	      2.61358844	      5.87905141	     -4.07265482	    -11.80135132	     20.18080199	     20.18080199	     21.86778699	    -17.24405081	      8.26521281	    -12.13819330	      9.82801711	      1.40796325	    -13.08439790	     -8.61472866	    -19.55410403	     28.60032429	     46.65803492	      0.00000000	      0.00000000	     34.66997969	    -27.75401891	     -8.85850432	     84.55468029	     48.04119585	      0.00000000	      0.00000000
